{
  "accessors": [
    {
      "bufferView": 2,
      "componentType": 5126,
      "count": 801,
      "max": [
        15.846802711486816,
        1.6134929656982422,
        3.068006992340088
      ],
      "min": [
        -18.036422729492188,
        -5.9019060134887695,
        -1.7822469472885132
      ],
      "type": "VEC3"
    },
    {
      "bufferView": 2,
      "byteOffset": 9612,
      "componentType": 5126,
      "count": 801,
      "max": [
        0.9998917579650879,
        0.999896228313446,
        0.5511490106582642
      ],
      "min": [
        -0.9998957514762878,
        -0.9999003410339355,
        -1.0
      ],
      "type": "VEC3"
    },
    {
      "bufferView": 3,
      "componentType": 5126,
      "count": 801,
      "max": [
        0.9998947381973267,
        0.9998658895492554,
        0.9998048543930054,
        1.0
      ],
      "min": [
        -0.9998977184295654,
        -0.9998925924301147,
        -0.9999948143959045,
        1.0
      ],
      "type": "VEC4"
    },
    {
      "bufferView": 1,
      "componentType": 5126,
      "count": 801,
      "max": [
        0.9955340027809143,
        0.9999989867210388
      ],
      "min": [
        0.0,
        0.0
      ],
      "type": "VEC2"
    },
    {
      "bufferView": 0,
      "componentType": 5125,
      "count": 2628,
      "type": "SCALAR"
    },
    {
      "bufferView": 2,
      "byteOffset": 19224,
      "componentType": 5126,
      "count": 25018,
      "max": [
        12.326414108276367,
        3.25274395942688,
        3.910633087158203
      ],
      "min": [
        -22.08892059326172,
        -5.611295223236084,
        -1.7030620574951172
      ],
      "type": "VEC3"
    },
    {
      "bufferView": 2,
      "byteOffset": 319440,
      "componentType": 5126,
      "count": 25018,
      "max": [
        0.9999560117721558,
        0.9988557696342468,
        1.0
      ],
      "min": [
        -0.9991914629936218,
        -0.9988970160484314,
        -0.9999867677688599
      ],
      "type": "VEC3"
    },
    {
      "bufferView": 3,
      "byteOffset": 12816,
      "componentType": 5126,
      "count": 25018,
      "max": [
        0.9999890327453613,
        0.9999136924743652,
        0.9997541308403015,
        1.0
      ],
      "min": [
        -0.9999489784240723,
        -0.9999745488166809,
        -0.9997103810310364,
        -1.0
      ],
      "type": "VEC4"
    },
    {
      "bufferView": 1,
      "byteOffset": 6408,
      "componentType": 5126,
      "count": 25018,
      "max": [
        0.9999989867210388,
        0.998682975769043
      ],
      "min": [
        0.0,
        0.0
      ],
      "type": "VEC2"
    },
    {
      "bufferView": 0,
      "byteOffset": 10512,
      "componentType": 5125,
      "count": 67362,
      "type": "SCALAR"
    },
    {
      "bufferView": 2,
      "byteOffset": 619656,
      "componentType": 5126,
      "count": 58794,
      "max": [
        19.821168899536133,
        3.7601089477539063,
        4.485082149505615
      ],
      "min": [
        -15.515929222106934,
        -5.986361980438232,
        -6.222445011138916
      ],
      "type": "VEC3"
    },
    {
      "bufferView": 2,
      "byteOffset": 1325184,
      "componentType": 5126,
      "count": 58794,
      "max": [
        1.0,
        1.0,
        1.0
      ],
      "min": [
        -1.0,
        -1.0,
        -1.0
      ],
      "type": "VEC3"
    },
    {
      "bufferView": 3,
      "byteOffset": 413104,
      "componentType": 5126,
      "count": 58794,
      "max": [
        0.9999993443489075,
        0.9999838471412659,
        1.0,
        1.0
      ],
      "min": [
        -0.9999998807907104,
        -0.9999995231628418,
        -1.0,
        -1.0
      ],
      "type": "VEC4"
    },
    {
      "bufferView": 1,
      "byteOffset": 206552,
      "componentType": 5126,
      "count": 58794,
      "max": [
        0.9999989867210388,
        0.9989010095596313
      ],
      "min": [
        0.0,
        0.0
      ],
      "type": "VEC2"
    },
    {
      "bufferView": 0,
      "byteOffset": 279960,
      "componentType": 5125,
      "count": 145743,
      "type": "SCALAR"
    },
    {
      "bufferView": 2,
      "byteOffset": 2030712,
      "componentType": 5126,
      "count": 4854,
      "max": [
        14.468923568725586,
        1.8135470151901245,
        3.271812915802002
      ],
      "min": [
        -18.67867660522461,
        -1.229984998703003,
        -1.5966099500656128
      ],
      "type": "VEC3"
    },
    {
      "bufferView": 2,
      "byteOffset": 2088960,
      "componentType": 5126,
      "count": 4854,
      "max": [
        0.9999868869781494,
        0.9999970197677612,
        0.9999983310699463
      ],
      "min": [
        -0.999904453754425,
        -0.9999884963035583,
        -0.9999896287918091
      ],
      "type": "VEC3"
    },
    {
      "bufferView": 3,
      "byteOffset": 1353808,
      "componentType": 5126,
      "count": 4854,
      "max": [
        0.9999834895133972,
        0.9995375275611877,
        0.9999982714653015,
        1.0
      ],
      "min": [
        -0.9999459385871887,
        -0.9999105334281921,
        -0.999995768070221,
        1.0
      ],
      "type": "VEC4"
    },
    {
      "bufferView": 1,
      "byteOffset": 676904,
      "componentType": 5126,
      "count": 4854,
      "max": [
        0.9943299889564514,
        0.9999989867210388
      ],
      "min": [
        0.0,
        0.0
      ],
      "type": "VEC2"
    },
    {
      "bufferView": 0,
      "byteOffset": 862932,
      "componentType": 5125,
      "count": 15654,
      "type": "SCALAR"
    },
    {
      "bufferView": 2,
      "byteOffset": 2147208,
      "componentType": 5126,
      "count": 4554,
      "max": [
        20.18411636352539,
        10.336128234863281,
        14.794118881225586
      ],
      "min": [
        -20.185516357421875,
        -10.336129188537598,
        -5.328023910522461
      ],
      "type": "VEC3"
    },
    {
      "bufferView": 2,
      "byteOffset": 2201856,
      "componentType": 5126,
      "count": 4554,
      "max": [
        0.9999611377716064,
        1.0,
        0.9999706149101257
      ],
      "min": [
        -0.9999669790267944,
        -1.0,
        -1.0
      ],
      "type": "VEC3"
    },
    {
      "bufferView": 3,
      "byteOffset": 1431472,
      "componentType": 5126,
      "count": 4554,
      "max": [
        1.0,
        1.0,
        1.0,
        1.0
      ],
      "min": [
        -1.0,
        -0.9999995827674866,
        -1.0,
        -1.0
      ],
      "type": "VEC4"
    },
    {
      "bufferView": 1,
      "byteOffset": 715736,
      "componentType": 5126,
      "count": 4554,
      "max": [
        0.9999989867210388,
        0.9930099844932556
      ],
      "min": [
        0.0,
        0.0
      ],
      "type": "VEC2"
    },
    {
      "bufferView": 0,
      "byteOffset": 925548,
      "componentType": 5125,
      "count": 6636,
      "type": "SCALAR"
    },
    {
      "bufferView": 2,
      "byteOffset": 2256504,
      "componentType": 5126,
      "count": 1055,
      "max": [
        16.774782180786133,
        3.0963640213012695,
        3.825261116027832
      ],
      "min": [
        -17.161102294921875,
        -5.3875250816345215,
        -3.7444489002227783
      ],
      "type": "VEC3"
    },
    {
      "bufferView": 2,
      "byteOffset": 2269164,
      "componentType": 5126,
      "count": 1055,
      "max": [
        0.9998188614845276,
        0.9996757507324219,
        0.9992539882659912
      ],
      "min": [
        -0.9995107650756836,
        -1.0,
        -1.0
      ],
      "type": "VEC3"
    },
    {
      "bufferView": 3,
      "byteOffset": 1504336,
      "componentType": 5126,
      "count": 1055,
      "max": [
        0.9996969699859619,
        0.9999409914016724,
        0.9999901652336121,
        1.0
      ],
      "min": [
        -0.9997292160987854,
        -0.9996020793914795,
        -0.9999610185623169,
        1.0
      ],
      "type": "VEC4"
    },
    {
      "bufferView": 1,
      "byteOffset": 752168,
      "componentType": 5126,
      "count": 1055,
      "max": [
        0.998786985874176,
        0.9999989867210388
      ],
      "min": [
        0.0,
        0.0
      ],
      "type": "VEC2"
    },
    {
      "bufferView": 0,
      "byteOffset": 952092,
      "componentType": 5125,
      "count": 2898,
      "type": "SCALAR"
    }
  ],
  "asset": {
    "extras": {
      "author": "Leon_dp (https://sketchfab.com/leondp)",
      "license": "CC-BY-4.0 (http://creativecommons.org/licenses/by/4.0/)",
      "source": "https://sketchfab.com/3d-models/25-pack-smoldering-wall-torches-18d4204061c24818b55ee70d76011ad0",
      "title": "25-pack smoldering wall torches"
    },
    "generator": "Sketchfab-12.68.0",
    "version": "2.0"
  },
  "bufferViews": [
    {
      "buffer": 0,
      "byteLength": 963684,
      "name": "floatBufferViews",
      "target": 34963
    },
    {
      "buffer": 0,
      "byteLength": 760608,
      "byteOffset": 963684,
      "byteStride": 8,
      "name": "floatBufferViews",
      "target": 34962
    },
    {
      "buffer": 0,
      "byteLength": 2281824,
      "byteOffset": 1724292,
      "byteStride": 12,
      "name": "floatBufferViews",
      "target": 34962
    },
    {
      "buffer": 0,
      "byteLength": 1521216,
      "byteOffset": 4006116,
      "byteStride": 16,
      "name": "floatBufferViews",
      "target": 34962
    }
  ],
  "buffers": [
    {
      "byteLength": 5527332,
      "uri": "scene.bin"
    }
  ],
  "images": [
    {
      "uri": "textures/wood_baseColor.jpeg"
    },
    {
      "uri": "textures/wood_metallicRoughness.png"
    },
    {
      "uri": "textures/wood_normal.png"
    },
    {
      "uri": "textures/wall-floor_baseColor.jpeg"
    },
    {
      "uri": "textures/wall-floor_metallicRoughness.png"
    },
    {
      "uri": "textures/wall-floor_normal.png"
    },
    {
      "uri": "textures/holders_baseColor.jpeg"
    },
    {
      "uri": "textures/holders_metallicRoughness.png"
    },
    {
      "uri": "textures/holders_normal.png"
    },
    {
      "uri": "textures/metal_baseColor.jpeg"
    },
    {
      "uri": "textures/metal_metallicRoughness.png"
    },
    {
      "uri": "textures/metal_normal.png"
    },
    {
      "uri": "textures/coals_baseColor.jpeg"
    },
    {
      "uri": "textures/coals_metallicRoughness.png"
    },
    {
      "uri": "textures/coals_emissive.jpeg"
    },
    {
      "uri": "textures/coals_normal.png"
    },
    {
      "uri": "textures/rope_baseColor.jpeg"
    },
    {
      "uri": "textures/rope_metallicRoughness.png"
    },
    {
      "uri": "textures/rope_normal.png"
    }
  ],
  "materials": [
    {
      "doubleSided": true,
      "name": "wood",
      "normalTexture": {
        "index": 2
      },
      "pbrMetallicRoughness": {
        "baseColorTexture": {
          "index": 0
        },
        "metallicRoughnessTexture": {
          "index": 1
        }
      }
    },
    {
      "doubleSided": true,
      "name": "wall-floor",
      "normalTexture": {
        "index": 5
      },
      "pbrMetallicRoughness": {
        "baseColorTexture": {
          "index": 3
        },
        "metallicFactor": 0.2222,
        "metallicRoughnessTexture": {
          "index": 4
        }
      }
    },
    {
      "doubleSided": true,
      "name": "holders",
      "normalTexture": {
        "index": 8
      },
      "pbrMetallicRoughness": {
        "baseColorFactor": [
          0.8165666182272493,
          0.8165666182272493,
          0.8165666182272493,
          1.0
        ],
        "baseColorTexture": {
          "index": 6
        },
        "metallicRoughnessTexture": {
          "index": 7
        }
      }
    },
    {
      "doubleSided": true,
      "name": "metal",
      "normalTexture": {
        "index": 11
      },
      "pbrMetallicRoughness": {
        "baseColorTexture": {
          "index": 9
        },
        "metallicRoughnessTexture": {
          "index": 10
        }
      }
    },
    {
      "doubleSided": true,
      "emissiveFactor": [
        1.0,
        1.0,
        1.0
      ],
      "emissiveTexture": {
        "index": 14
      },
      "name": "coals",
      "normalTexture": {
        "index": 15
      },
      "pbrMetallicRoughness": {
        "baseColorTexture": {
          "index": 12
        },
        "metallicRoughnessTexture": {
          "index": 13
        }
      }
    },
    {
      "doubleSided": true,
      "name": "rope",
      "normalTexture": {
        "index": 18
      },
      "pbrMetallicRoughness": {
        "baseColorTexture": {
          "index": 16
        },
        "metallicFactor": 0.0,
        "metallicRoughnessTexture": {
          "index": 17
        }
      }
    }
  ],
  "meshes": [
    {
      "name": "defaultMaterial",
      "primitives": [
        {
          "attributes": {
            "NORMAL": 1,
            "POSITION": 0,
            "TANGENT": 2,
            "TEXCOORD_0": 3
          },
          "indices": 4,
          "material": 5,
          "mode": 4
        }
      ]
    },
    {
      "name": "defaultMaterial",
      "primitives": [
        {
          "attributes": {
            "NORMAL": 6,
            "POSITION": 5,
            "TANGENT": 7,
            "TEXCOORD_0": 8
          },
          "indices": 9,
          "material": 4,
          "mode": 4
        }
      ]
    },
    {
      "name": "defaultMaterial",
      "primitives": [
        {
          "attributes": {
            "NORMAL": 11,
            "POSITION": 10,
            "TANGENT": 12,
            "TEXCOORD_0": 13
          },
          "indices": 14,
          "material": 3,
          "mode": 4
        }
      ]
    },
    {
      "name": "defaultMaterial",
      "primitives": [
        {
          "attributes": {
            "NORMAL": 16,
            "POSITION": 15,
            "TANGENT": 17,
            "TEXCOORD_0": 18
          },
          "indices": 19,
          "material": 2,
          "mode": 4
        }
      ]
    },
    {
      "name": "defaultMaterial",
      "primitives": [
        {
          "attributes": {
            "NORMAL": 21,
            "POSITION": 20,
            "TANGENT": 22,
            "TEXCOORD_0": 23
          },
          "indices": 24,
          "material": 1,
          "mode": 4
        }
      ]
    },
    {
      "name": "defaultMaterial",
      "primitives": [
        {
          "attributes": {
            "NORMAL": 26,
            "POSITION": 25,
            "TANGENT": 27,
            "TEXCOORD_0": 28
          },
          "indices": 29,
          "material": 0,
          "mode": 4
        }
      ]
    }
  ],
  "nodes": [
    {
      "children": [
        1
      ],
      "matrix": [
        1.0,
        0.0,
        0.0,
        0.0,
        0.0,
        2.220446049250313e-16,
        -1.0,
        0.0,
        0.0,
        1.0,
        2.220446049250313e-16,
        0.0,
        0.0,
        0.0,
        0.0,
        1.0
      ],
      "name": "Sketchfab_model"
    },
    {
      "children": [
        2,
        4,
        6,
        8,
        10,
        12
      ],
      "matrix": [
        1.0,
        0.0,
        0.0,
        0.0,
        0.0,
        -4.371139006309477e-08,
        0.999999999999999,
        0.0,
        0.0,
        -0.999999999999999,
        -4.371139006309477e-08,
        0.0,
        0.0,
        0.0,
        0.0,
        1.0
      ],
      "name": "Collada visual scene group"
    },
    {
      "children": [
        3
      ],
      "matrix": [
        100.0,
        0.0,
        0.0,
        0.0,
        0.0,
        -1.6e-05,
        -100.0,
        0.0,
        0.0,
        100.0,
        -1.6e-05,
        0.0,
        186.350235,
        990.642151,
        -281.647675,
        1.0
      ],
      "name": "rope"
    },
    {
      "mesh": 0,
      "name": "defaultMaterial"
    },
    {
      "children": [
        5
      ],
      "matrix": [
        100.0,
        0.0,
        0.0,
        0.0,
        0.0,
        -1.6e-05,
        -100.0,
        0.0,
        0.0,
        100.0,
        -1.6e-05,
        0.0,
        546.746887,
        1550.880371,
        -143.417923,
        1.0
      ],
      "name": "coals"
    },
    {
      "mesh": 1,
      "name": "defaultMaterial"
    },
    {
      "children": [
        7
      ],
      "matrix": [
        100.0,
        0.0,
        0.0,
        0.0,
        0.0,
        -1.6e-05,
        -100.0,
        0.0,
        0.0,
        100.0,
        -1.6e-05,
        0.0,
        -141.208466,
        1428.767212,
        -143.533463,
        1.0
      ],
      "name": "metal"
    },
    {
      "mesh": 2,
      "name": "defaultMaterial"
    },
    {
      "children": [
        9
      ],
      "matrix": [
        100.0,
        0.0,
        0.0,
        0.0,
        0.0,
        -1.6e-05,
        -100.0,
        0.0,
        0.0,
        100.0,
        -1.6e-05,
        0.0,
        228.949478,
        1247.410767,
        -290.288483,
        1.0
      ],
      "name": "holders"
    },
    {
      "mesh": 3,
      "name": "defaultMaterial"
    },
    {
      "children": [
        11
      ],
      "matrix": [
        100.0,
        0.0,
        0.0,
        0.0,
        0.0,
        -1.6e-05,
        -100.0,
        0.0,
        0.0,
        100.0,
        -1.6e-05,
        0.0,
        78.623833,
        171.432205,
        -125.367996,
        1.0
      ],
      "name": "wall_floor"
    },
    {
      "mesh": 4,
      "name": "defaultMaterial"
    },
    {
      "children": [
        13
      ],
      "matrix": [
        100.0,
        0.0,
        0.0,
        0.0,
        0.0,
        -1.6e-05,
        -100.0,
        0.0,
        0.0,
        100.0,
        -1.6e-05,
        0.0,
        92.986473,
        1275.494507,
        -132.224991,
        1.0
      ],
      "name": "wood"
    },
    {
      "mesh": 5,
      "name": "defaultMaterial"
    }
  ],
  "samplers": [
    {
      "magFilter": 9729,
      "minFilter": 9987,
      "wrapS": 10497,
      "wrapT": 10497
    }
  ],
  "scene": 0,
  "scenes": [
    {
      "name": "Sketchfab_Scene",
      "nodes": [
        0
      ]
    }
  ],
  "textures": [
    {
      "sampler": 0,
      "source": 0
    },
    {
      "sampler": 0,
      "source": 1
    },
    {
      "sampler": 0,
      "source": 2
    },
    {
      "sampler": 0,
      "source": 3
    },
    {
      "sampler": 0,
      "source": 4
    },
    {
      "sampler": 0,
      "source": 5
    },
    {
      "sampler": 0,
      "source": 6
    },
    {
      "sampler": 0,
      "source": 7
    },
    {
      "sampler": 0,
      "source": 8
    },
    {
      "sampler": 0,
      "source": 9
    },
    {
      "sampler": 0,
      "source": 10
    },
    {
      "sampler": 0,
      "source": 11
    },
    {
      "sampler": 0,
      "source": 12
    },
    {
      "sampler": 0,
      "source": 13
    },
    {
      "sampler": 0,
      "source": 14
    },
    {
      "sampler": 0,
      "source": 15
    },
    {
      "sampler": 0,
      "source": 16
    },
    {
      "sampler": 0,
      "source": 17
    },
    {
      "sampler": 0,
      "source": 18
    }
  ]
}
